v 0.0 1.0 0.0
v 0.0 -1.0 0.0
v -0.0 1.0 -1.0
v -0.0 -1.0 -1.0
v -0.19509032 1.0 -0.98078525
v -0.19509032 -1.0 -0.98078525
v -0.38268346 1.0 -0.9238795
v -0.38268346 -1.0 -0.9238795
v -0.55557024 1.0 -0.8314696
v -0.55557024 -1.0 -0.8314696
v -0.70710677 1.0 -0.70710677
v -0.70710677 -1.0 -0.70710677
v -0.83146966 1.0 -0.5555702
v -0.83146966 -1.0 -0.5555702
v -0.9238795 1.0 -0.38268343
v -0.9238795 -1.0 -0.38268343
v -0.9807853 1.0 -0.19509023
v -0.9807853 -1.0 -0.19509023
v -1.0 1.0 4.371139E-8
v -1.0 -1.0 4.371139E-8
v -0.98078525 1.0 0.19509032
v -0.98078525 -1.0 0.19509032
v -0.9238795 1.0 0.38268352
v -0.9238795 -1.0 0.38268352
v -0.83146954 1.0 0.55557036
v -0.83146954 -1.0 0.55557036
v -0.70710677 1.0 0.70710677
v -0.70710677 -1.0 0.70710677
v -0.5555702 1.0 0.83146966
v -0.5555702 -1.0 0.83146966
v -0.38268328 1.0 0.9238796
v -0.38268328 -1.0 0.9238796
v -0.19509031 1.0 0.9807853
v -0.19509031 -1.0 0.9807853
v 8.742278E-8 1.0 1.0
v 8.742278E-8 -1.0 1.0
v 0.19509049 1.0 0.98078525
v 0.19509049 -1.0 0.98078525
v 0.38268343 1.0 0.9238795
v 0.38268343 -1.0 0.9238795
v 0.5555703 1.0 0.83146954
v 0.5555703 -1.0 0.83146954
v 0.7071069 1.0 0.70710665
v 0.7071069 -1.0 0.70710665
v 0.8314698 1.0 0.55557
v 0.8314698 -1.0 0.55557
v 0.9238797 1.0 0.38268313
v 0.9238797 -1.0 0.38268313
v 0.98078525 1.0 0.19509038
v 0.98078525 -1.0 0.19509038
v 1.0 1.0 -1.1924881E-8
v 1.0 -1.0 -1.1924881E-8
v 0.98078525 1.0 -0.19509041
v 0.98078525 -1.0 -0.19509041
v 0.92387944 1.0 -0.3826836
v 0.92387944 -1.0 -0.3826836
v 0.8314695 1.0 -0.5555704
v 0.8314695 -1.0 -0.5555704
v 0.70710653 1.0 -0.707107
v 0.70710653 -1.0 -0.707107
v 0.5555703 1.0 -0.8314696
v 0.5555703 -1.0 -0.8314696
v 0.38268343 1.0 -0.92387956
v 0.38268343 -1.0 -0.92387956
v 0.19509023 1.0 -0.9807853
v 0.19509023 -1.0 -0.9807853
vt 0.0 0.5
vt 0.0 0.0
vt 0.03125 0.5
vt 0.03125 0.0
vt 0.0625 0.5
vt 0.0625 0.0
vt 0.09375 0.5
vt 0.09375 0.0
vt 0.125 0.5
vt 0.125 0.0
vt 0.15625 0.5
vt 0.15625 0.0
vt 0.1875 0.5
vt 0.1875 0.0
vt 0.21875 0.5
vt 0.21875 0.0
vt 0.25 0.5
vt 0.25 0.0
vt 0.28125 0.5
vt 0.28125 0.0
vt 0.3125 0.5
vt 0.3125 0.0
vt 0.34375 0.5
vt 0.34375 0.0
vt 0.375 0.5
vt 0.375 0.0
vt 0.40625 0.5
vt 0.40625 0.0
vt 0.4375 0.5
vt 0.4375 0.0
vt 0.46875 0.5
vt 0.46875 0.0
vt 0.5 0.5
vt 0.5 0.0
vt 0.53125 0.5
vt 0.53125 0.0
vt 0.5625 0.5
vt 0.5625 0.0
vt 0.59375 0.5
vt 0.59375 0.0
vt 0.625 0.5
vt 0.625 0.0
vt 0.65625 0.5
vt 0.65625 0.0
vt 0.6875 0.5
vt 0.6875 0.0
vt 0.71875 0.5
vt 0.71875 0.0
vt 0.75 0.5
vt 0.75 0.0
vt 0.78125 0.5
vt 0.78125 0.0
vt 0.8125 0.5
vt 0.8125 0.0
vt 0.84375 0.5
vt 0.84375 0.0
vt 0.875 0.5
vt 0.875 0.0
vt 0.90625 0.5
vt 0.90625 0.0
vt 0.9375 0.5
vt 0.9375 0.0
vt 0.96875 0.5
vt 0.96875 0.0
vt 1.0 0.5
vt 1.0 0.0
vt 0.75 0.75
vt 0.25 0.75
vt 1.0 0.75
vt 0.5 0.75
vt 0.99519634 0.7987726
vt 0.4951963 0.7987726
vt 0.9809699 0.8456709
vt 0.48096988 0.8456709
vt 0.9578674 0.88889253
vt 0.45786738 0.88889253
vt 0.9267767 0.9267767
vt 0.4267767 0.9267767
vt 0.88889253 0.9578674
vt 0.38889253 0.9578674
vt 0.8456709 0.9809699
vt 0.34567085 0.9809699
vt 0.7987726 0.99519634
vt 0.29877257 0.99519634
vt 0.75 1.0
vt 0.24999999 1.0
vt 0.7012274 0.99519634
vt 0.20122743 0.99519634
vt 0.6543291 0.9809699
vt 0.15432912 0.9809699
vt 0.6111074 0.9578674
vt 0.11110741 0.9578674
vt 0.5732233 0.9267767
vt 0.07322331 0.9267767
vt 0.5421326 0.88889253
vt 0.042132586 0.88889253
vt 0.5190301 0.8456708
vt 0.019030094 0.8456708
vt 0.50480366 0.7987726
vt 0.0048036724 0.7987726
vt 0.5 0.75
vt 0.0 0.75
vt 0.50480366 0.70122737
vt 0.0048036873 0.70122737
vt 0.5190301 0.6543291
vt 0.019030124 0.6543291
vt 0.5421326 0.6111074
vt 0.042132616 0.6111074
vt 0.57322335 0.5732233
vt 0.07322334 0.5732233
vt 0.61110747 0.54213256
vt 0.1111075 0.54213256
vt 0.65432924 0.5190301
vt 0.15432921 0.5190301
vt 0.7012274 0.50480366
vt 0.2012274 0.50480366
vt 0.75 0.5
vt 0.25 0.5
vt 0.7987726 0.50480366
vt 0.2987726 0.50480366
vt 0.8456709 0.51903015
vt 0.3456709 0.51903015
vt 0.8888926 0.5421326
vt 0.3888926 0.5421326
vt 0.92677677 0.57322335
vt 0.42677677 0.57322335
vt 0.9578674 0.6111074
vt 0.45786738 0.6111074
vt 0.9809699 0.6543291
vt 0.4809699 0.6543291
vt 0.99519634 0.7012274
vt 0.49519634 0.7012274
vn 0.0 1.0 0.0
vn 0.0 -1.0 0.0
vn -0.0 0.0 -1.0
vn -0.19509035 0.0 -0.98078537
vn -0.38268346 0.0 -0.9238795
vn -0.55557024 0.0 -0.8314696
vn -0.7071068 0.0 -0.7071068
vn -0.83146966 0.0 -0.5555702
vn -0.9238796 0.0 -0.3826835
vn -0.9807853 0.0 -0.19509023
vn -1.0 0.0 4.371139E-8
vn -0.98078537 0.0 0.19509035
vn -0.9238795 0.0 0.38268352
vn -0.83146954 0.0 0.55557036
vn -0.7071068 0.0 0.7071068
vn -0.5555702 0.0 0.83146966
vn -0.38268328 0.0 0.9238796
vn -0.19509031 0.0 0.9807853
vn 8.742278E-8 0.0 1.0
vn 0.19509049 0.0 0.98078525
vn 0.3826835 0.0 0.9238796
vn 0.55557036 0.0 0.83146966
vn 0.7071069 0.0 0.70710665
vn 0.8314698 0.0 0.55557
vn 0.9238797 0.0 0.38268313
vn 0.98078537 0.0 0.19509041
vn 1.0 0.0 -1.1924881E-8
vn 0.98078537 0.0 -0.19509044
vn 0.92387944 0.0 -0.3826836
vn 0.8314695 0.0 -0.5555704
vn 0.7071066 0.0 -0.70710707
vn 0.5555703 0.0 -0.8314696
vn 0.38268343 0.0 -0.92387956
vn 0.19509023 0.0 -0.9807853
f 3/1/3 4/2/3 5/3/4
f 5/3/4 4/2/3 6/4/4
f 5/3/4 6/4/4 7/5/5
f 7/5/5 6/4/4 8/6/5
f 7/5/5 8/6/5 9/7/6
f 9/7/6 8/6/5 10/8/6
f 9/7/6 10/8/6 11/9/7
f 11/9/7 10/8/6 12/10/7
f 11/9/7 12/10/7 13/11/8
f 13/11/8 12/10/7 14/12/8
f 13/11/8 14/12/8 15/13/9
f 15/13/9 14/12/8 16/14/9
f 15/13/9 16/14/9 17/15/10
f 17/15/10 16/14/9 18/16/10
f 17/15/10 18/16/10 19/17/11
f 19/17/11 18/16/10 20/18/11
f 19/17/11 20/18/11 21/19/12
f 21/19/12 20/18/11 22/20/12
f 21/19/12 22/20/12 23/21/13
f 23/21/13 22/20/12 24/22/13
f 23/21/13 24/22/13 25/23/14
f 25/23/14 24/22/13 26/24/14
f 25/23/14 26/24/14 27/25/15
f 27/25/15 26/24/14 28/26/15
f 27/25/15 28/26/15 29/27/16
f 29/27/16 28/26/15 30/28/16
f 29/27/16 30/28/16 31/29/17
f 31/29/17 30/28/16 32/30/17
f 31/29/17 32/30/17 33/31/18
f 33/31/18 32/30/17 34/32/18
f 33/31/18 34/32/18 35/33/19
f 35/33/19 34/32/18 36/34/19
f 35/33/19 36/34/19 37/35/20
f 37/35/20 36/34/19 38/36/20
f 37/35/20 38/36/20 39/37/21
f 39/37/21 38/36/20 40/38/21
f 39/37/21 40/38/21 41/39/22
f 41/39/22 40/38/21 42/40/22
f 41/39/22 42/40/22 43/41/23
f 43/41/23 42/40/22 44/42/23
f 43/41/23 44/42/23 45/43/24
f 45/43/24 44/42/23 46/44/24
f 45/43/24 46/44/24 47/45/25
f 47/45/25 46/44/24 48/46/25
f 47/45/25 48/46/25 49/47/26
f 49/47/26 48/46/25 50/48/26
f 49/47/26 50/48/26 51/49/27
f 51/49/27 50/48/26 52/50/27
f 51/49/27 52/50/27 53/51/28
f 53/51/28 52/50/27 54/52/28
f 53/51/28 54/52/28 55/53/29
f 55/53/29 54/52/28 56/54/29
f 55/53/29 56/54/29 57/55/30
f 57/55/30 56/54/29 58/56/30
f 57/55/30 58/56/30 59/57/31
f 59/57/31 58/56/30 60/58/31
f 59/57/31 60/58/31 61/59/32
f 61/59/32 60/58/31 62/60/32
f 61/59/32 62/60/32 63/61/33
f 63/61/33 62/60/32 64/62/33
f 63/61/33 64/62/33 65/63/34
f 65/63/34 64/62/33 66/64/34
f 65/63/34 66/64/34 3/65/3
f 3/65/3 66/64/34 4/66/3
f 1/67/1 3/69/1 5/71/1
f 2/68/2 6/70/2 4/72/2
f 1/67/1 5/71/1 7/73/1
f 2/68/2 8/72/2 6/74/2
f 1/67/1 7/73/1 9/75/1
f 2/68/2 10/74/2 8/76/2
f 1/67/1 9/75/1 11/77/1
f 2/68/2 12/76/2 10/78/2
f 1/67/1 11/77/1 13/79/1
f 2/68/2 14/78/2 12/80/2
f 1/67/1 13/79/1 15/81/1
f 2/68/2 16/80/2 14/82/2
f 1/67/1 15/81/1 17/83/1
f 2/68/2 18/82/2 16/84/2
f 1/67/1 17/83/1 19/85/1
f 2/68/2 20/84/2 18/86/2
f 1/67/1 19/85/1 21/87/1
f 2/68/2 22/86/2 20/88/2
f 1/67/1 21/87/1 23/89/1
f 2/68/2 24/88/2 22/90/2
f 1/67/1 23/89/1 25/91/1
f 2/68/2 26/90/2 24/92/2
f 1/67/1 25/91/1 27/93/1
f 2/68/2 28/92/2 26/94/2
f 1/67/1 27/93/1 29/95/1
f 2/68/2 30/94/2 28/96/2
f 1/67/1 29/95/1 31/97/1
f 2/68/2 32/96/2 30/98/2
f 1/67/1 31/97/1 33/99/1
f 2/68/2 34/98/2 32/100/2
f 1/67/1 33/99/1 35/101/1
f 2/68/2 36/100/2 34/102/2
f 1/67/1 35/101/1 37/103/1
f 2/68/2 38/102/2 36/104/2
f 1/67/1 37/103/1 39/105/1
f 2/68/2 40/104/2 38/106/2
f 1/67/1 39/105/1 41/107/1
f 2/68/2 42/106/2 40/108/2
f 1/67/1 41/107/1 43/109/1
f 2/68/2 44/108/2 42/110/2
f 1/67/1 43/109/1 45/111/1
f 2/68/2 46/110/2 44/112/2
f 1/67/1 45/111/1 47/113/1
f 2/68/2 48/112/2 46/114/2
f 1/67/1 47/113/1 49/115/1
f 2/68/2 50/114/2 48/116/2
f 1/67/1 49/115/1 51/117/1
f 2/68/2 52/116/2 50/118/2
f 1/67/1 51/117/1 53/119/1
f 2/68/2 54/118/2 52/120/2
f 1/67/1 53/119/1 55/121/1
f 2/68/2 56/120/2 54/122/2
f 1/67/1 55/121/1 57/123/1
f 2/68/2 58/122/2 56/124/2
f 1/67/1 57/123/1 59/125/1
f 2/68/2 60/124/2 58/126/2
f 1/67/1 59/125/1 61/127/1
f 2/68/2 62/126/2 60/128/2
f 1/67/1 61/127/1 63/129/1
f 2/68/2 64/128/2 62/130/2
f 1/67/1 63/129/1 65/131/1
f 2/68/2 66/130/2 64/132/2
f 1/67/1 65/131/1 3/69/1
f 2/68/2 4/132/2 66/70/2
