v 0.0 1.0 0.0
v -0.0 0.809017 -0.58778524
v -0.4156269 0.809017 -0.4156269
v -0.58778524 0.809017 2.569291E-8
v -0.4156269 0.809017 0.4156269
v 5.138582E-8 0.809017 0.58778524
v 0.415627 0.809017 0.41562685
v 0.58778524 0.809017 -7.0092687E-9
v 0.4156268 0.809017 -0.41562706
v -0.0 0.30901697 -0.95105654
v -0.6724985 0.30901697 -0.6724985
v -0.95105654 0.30901697 4.1572E-8
v -0.6724985 0.30901697 0.6724985
v 8.3144E-8 0.30901697 0.95105654
v 0.67249864 0.30901697 0.6724984
v 0.95105654 0.30901697 -1.13412355E-8
v 0.6724983 0.30901697 -0.67249876
v -0.0 -0.30901703 -0.9510565
v -0.67249846 -0.30901703 -0.67249846
v -0.9510565 -0.30901703 4.1571997E-8
v -0.67249846 -0.30901703 0.67249846
v 8.3143995E-8 -0.30901703 0.9510565
v 0.6724986 -0.30901703 0.67249835
v 0.9510565 -0.30901703 -1.1341235E-8
v 0.6724982 -0.30901703 -0.6724987
v -0.0 -0.80901706 -0.5877852
v -0.41562688 -0.80901706 -0.41562688
v -0.5877852 -0.80901706 2.5692906E-8
v -0.41562688 -0.80901706 0.41562688
v 5.138581E-8 -0.80901706 0.5877852
v 0.41562694 -0.80901706 0.41562682
v 0.5877852 -0.80901706 -7.0092683E-9
v 0.41562673 -0.80901706 -0.41562703
v 0.0 -1.0 0.0
vt 0.0 1.0
vt 0.125 1.0
vt 0.25 1.0
vt 0.375 1.0
vt 0.5 1.0
vt 0.625 1.0
vt 0.75 1.0
vt 0.875 1.0
vt 0.0 0.8
vt 0.125 0.8
vt 0.25 0.8
vt 0.375 0.8
vt 0.5 0.8
vt 0.625 0.8
vt 0.75 0.8
vt 0.875 0.8
vt 1.0 0.8
vt 0.0 0.6
vt 0.125 0.6
vt 0.25 0.6
vt 0.375 0.6
vt 0.5 0.6
vt 0.625 0.6
vt 0.75 0.6
vt 0.875 0.6
vt 1.0 0.6
vt 0.0 0.39999998
vt 0.125 0.39999998
vt 0.25 0.39999998
vt 0.375 0.39999998
vt 0.5 0.39999998
vt 0.625 0.39999998
vt 0.75 0.39999998
vt 0.875 0.39999998
vt 1.0 0.39999998
vt 0.0 0.19999999
vt 0.125 0.19999999
vt 0.25 0.19999999
vt 0.375 0.19999999
vt 0.5 0.19999999
vt 0.625 0.19999999
vt 0.75 0.19999999
vt 0.875 0.19999999
vt 1.0 0.19999999
vt 0.125 0.0
vt 0.25 0.0
vt 0.375 0.0
vt 0.5 0.0
vt 0.625 0.0
vt 0.75 0.0
vt 0.875 0.0
vt 1.0 0.0
vn 0.0 1.0 0.0
vn -0.0 0.809017 -0.58778524
vn -0.4156269 0.809017 -0.4156269
vn -0.58778524 0.809017 2.569291E-8
vn -0.4156269 0.809017 0.4156269
vn 5.138582E-8 0.809017 0.58778524
vn 0.415627 0.809017 0.41562685
vn 0.58778524 0.809017 -7.0092687E-9
vn 0.4156268 0.809017 -0.41562706
vn -0.0 0.30901697 -0.95105654
vn -0.6724985 0.30901697 -0.6724985
vn -0.95105654 0.30901697 4.1572E-8
vn -0.6724985 0.30901697 0.6724985
vn 8.3144E-8 0.30901697 0.95105654
vn 0.67249864 0.30901697 0.6724984
vn 0.95105654 0.30901697 -1.13412355E-8
vn 0.6724983 0.30901697 -0.67249876
vn -0.0 -0.30901706 -0.9510566
vn -0.6724985 -0.30901706 -0.6724985
vn -0.9510566 -0.30901706 4.1572E-8
vn -0.6724985 -0.30901706 0.6724985
vn 8.3144E-8 -0.30901706 0.9510566
vn 0.67249864 -0.30901706 0.6724984
vn 0.9510566 -0.30901706 -1.1341236E-8
vn 0.6724983 -0.30901706 -0.67249876
vn -0.0 -0.80901706 -0.5877852
vn -0.41562688 -0.80901706 -0.41562688
vn -0.5877852 -0.80901706 2.5692906E-8
vn -0.41562688 -0.80901706 0.41562688
vn 5.138581E-8 -0.80901706 0.5877852
vn 0.41562694 -0.80901706 0.41562682
vn 0.5877852 -0.80901706 -7.0092683E-9
vn 0.41562673 -0.80901706 -0.41562703
vn 0.0 -1.0 0.0
f 1/1/1 2/9/2 3/10/3
f 1/2/1 3/10/3 4/11/4
f 1/3/1 4/11/4 5/12/5
f 1/4/1 5/12/5 6/13/6
f 1/5/1 6/13/6 7/14/7
f 1/6/1 7/14/7 8/15/8
f 1/7/1 8/15/8 9/16/9
f 1/8/1 9/16/9 2/17/2
f 3/10/3 2/9/2 11/19/11
f 2/9/2 10/18/10 11/19/11
f 4/11/4 3/10/3 12/20/12
f 3/10/3 11/19/11 12/20/12
f 5/12/5 4/11/4 13/21/13
f 4/11/4 12/20/12 13/21/13
f 6/13/6 5/12/5 14/22/14
f 5/12/5 13/21/13 14/22/14
f 7/14/7 6/13/6 15/23/15
f 6/13/6 14/22/14 15/23/15
f 8/15/8 7/14/7 16/24/16
f 7/14/7 15/23/15 16/24/16
f 9/16/9 8/15/8 17/25/17
f 8/15/8 16/24/16 17/25/17
f 2/17/2 9/16/9 10/26/10
f 9/16/9 17/25/17 10/26/10
f 11/19/11 10/18/10 19/28/19
f 10/18/10 18/27/18 19/28/19
f 12/20/12 11/19/11 20/29/20
f 11/19/11 19/28/19 20/29/20
f 13/21/13 12/20/12 21/30/21
f 12/20/12 20/29/20 21/30/21
f 14/22/14 13/21/13 22/31/22
f 13/21/13 21/30/21 22/31/22
f 15/23/15 14/22/14 23/32/23
f 14/22/14 22/31/22 23/32/23
f 16/24/16 15/23/15 24/33/24
f 15/23/15 23/32/23 24/33/24
f 17/25/17 16/24/16 25/34/25
f 16/24/16 24/33/24 25/34/25
f 10/26/10 17/25/17 18/35/18
f 17/25/17 25/34/25 18/35/18
f 19/28/19 18/27/18 27/37/27
f 18/27/18 26/36/26 27/37/27
f 20/29/20 19/28/19 28/38/28
f 19/28/19 27/37/27 28/38/28
f 21/30/21 20/29/20 29/39/29
f 20/29/20 28/38/28 29/39/29
f 22/31/22 21/30/21 30/40/30
f 21/30/21 29/39/29 30/40/30
f 23/32/23 22/31/22 31/41/31
f 22/31/22 30/40/30 31/41/31
f 24/33/24 23/32/23 32/42/32
f 23/32/23 31/41/31 32/42/32
f 25/34/25 24/33/24 33/43/33
f 24/33/24 32/42/32 33/43/33
f 18/35/18 25/34/25 26/44/26
f 25/34/25 33/43/33 26/44/26
f 34/45/34 27/37/27 26/36/26
f 34/46/34 28/38/28 27/37/27
f 34/47/34 29/39/29 28/38/28
f 34/48/34 30/40/30 29/39/29
f 34/49/34 31/41/31 30/40/30
f 34/50/34 32/42/32 31/41/31
f 34/51/34 33/43/33 32/42/32
f 34/52/34 26/44/26 33/43/33
